<?xml version="1.0" ?><!DOCTYPE svg  PUBLIC '-//W3C//DTD SVG 1.1//EN'  'http://www.w3.org/Graphics/SVG/1.1/DTD/svg11.dtd'><svg enable-background="new 0 0 66 66" id="Layer_1" version="1.1" viewBox="0 0 66 66" xml:space="preserve" xmlns="http://www.w3.org/2000/svg" xmlns:xlink="http://www.w3.org/1999/xlink"><g><g><rect fill="#44C4A1" height="64" width="64" x="1" y="1"/><rect fill="#3EA69B" height="8" width="64" x="1" y="57"/></g><g><polygon fill="#FFFFFF" points="24.2,18.6 25.6,18.6 25.6,20.2 27.2,20.2 27.2,15.5 25.6,15.5 25.6,17.1 24.2,17.1 24.2,15.5     22.6,15.5 22.6,20.2 24.2,20.2   "/><polygon fill="#FFFFFF" points="29.7,20.2 31.3,20.2 31.3,17.1 32.7,17.1 32.7,15.5 28.3,15.5 28.3,17.1 29.7,17.1   "/><polygon fill="#FFFFFF" points="35.1,17.9 36.1,19.6 36.2,19.6 37.2,17.9 37.2,20.2 38.8,20.2 38.8,15.5 37.2,15.5 36.2,17.2     35.2,15.5 33.5,15.5 33.5,20.2 35.1,20.2   "/><polygon fill="#FFFFFF" points="43.5,18.7 41.3,18.7 41.3,15.5 39.7,15.5 39.7,20.2 43.5,20.2   "/><path d="M20.2,22.6l2.3,25.6L33,50.5l10.5-2.3l2.3-25.6H20.2z M40.6,30.7H33h-4.7l0.6,2.3H33h7l-1.2,10.5L33,45.8    l-5.8-2.3l-0.9-4.7h3.3l0.6,2.3l2.9,1.2l2.9-1.2l0.6-4.7H33h-7l-1.2-9.3H33h8.2L40.6,30.7z" fill="#FFFFFF"/></g></g></svg>